<?xml version="1.0" standalone="no"?>
<!DOCTYPE svg PUBLIC "-//W3C//DTD SVG 20010904//EN"
 "http://www.w3.org/TR/2001/REC-SVG-20010904/DTD/svg10.dtd">
<svg version="1.0" xmlns="http://www.w3.org/2000/svg"
 width="1024.000000pt" height="1024.000000pt" viewBox="0 0 1024.000000 1024.000000"
 preserveAspectRatio="xMidYMid meet">
<metadata>
Created by potrace 1.16, written by Peter Selinger 2001-2019
</metadata>
<g transform="translate(0.000000,1024.000000) scale(0.100000,-0.100000)"
fill="#000000" stroke="none">
<path d="M7003 9976 c-211 -58 -387 -196 -478 -376 -84 -167 -131 -464 -106
-681 14 -122 60 -299 96 -369 l25 -50 -22 0 c-139 1 -362 88 -428 168 -36 44
-37 50 -6 110 40 78 94 246 111 339 36 210 7 376 -84 473 -137 147 -361 64
-455 -170 -15 -36 -29 -81 -32 -102 l-6 -37 -57 46 c-223 183 -471 132 -522
-108 -25 -115 30 -249 151 -369 85 -85 173 -142 317 -204 193 -84 288 -145
357 -230 21 -25 44 -46 52 -46 13 0 44 85 44 121 0 31 14 28 75 -13 230 -156
489 -239 790 -254 120 -6 142 -10 153 -26 10 -14 26 -18 67 -18 l53 0 117
-352 c145 -435 260 -714 313 -755 18 -15 167 -17 223 -4 l36 8 51 -76 c89
-134 433 -489 507 -523 18 -8 24 -23 33 -84 13 -82 44 -164 72 -189 16 -14 22
-15 52 -2 30 13 36 21 42 56 18 113 -37 311 -87 311 -12 0 -28 10 -36 22 -8
12 -68 90 -135 173 -233 288 -307 405 -256 405 5 0 31 13 57 28 l49 29 104
-69 c161 -107 346 -194 580 -274 73 -25 94 -38 155 -95 103 -97 163 -139 197
-139 17 0 31 6 35 16 15 40 -61 186 -143 271 -43 46 -55 53 -88 53 -90 0 -489
243 -615 374 l-34 35 30 38 c55 70 96 151 91 183 -3 18 0 31 9 34 7 3 13 17
13 32 0 39 -52 83 -168 142 -106 55 -148 93 -221 201 -24 35 -68 93 -99 129
-37 44 -51 67 -42 72 6 4 11 10 11 14 -3 21 1 26 22 25 21 0 21 -1 -3 -11 -15
-6 -20 -12 -12 -15 7 -3 53 9 103 26 63 22 100 41 122 64 18 17 59 58 92 89
92 87 135 132 135 141 0 4 12 26 26 49 18 29 28 59 30 93 2 45 5 50 27 53 14
2 31 10 38 18 19 23 -5 34 -60 27 -102 -12 -283 59 -370 146 -68 69 -105 151
-141 311 -51 226 -90 327 -175 445 -96 135 -249 240 -406 279 -98 24 -272 21
-376 -8z m347 -38 c74 -14 182 -65 258 -123 121 -92 217 -240 266 -410 32
-113 66 -268 59 -277 -10 -18 -23 -6 -17 16 3 14 2 31 -2 37 -4 7 -9 25 -11
39 -1 14 -13 66 -27 115 -21 77 -24 83 -22 43 2 -28 -1 -45 -6 -42 -5 3 -7 13
-3 22 3 9 3 13 -1 9 -4 -4 -13 -2 -21 4 -8 8 -13 8 -13 1 0 -6 6 -13 13 -15 6
-3 -5 -6 -25 -6 -21 -1 -38 4 -38 9 0 7 -6 7 -19 1 -14 -8 -20 -7 -25 4 -6 17
-46 21 -46 5 0 -5 6 -10 14 -10 7 0 19 -7 26 -16 17 -19 90 -55 101 -48 4 2
13 -5 19 -17 7 -12 8 -19 2 -16 -19 13 -73 33 -92 36 -20 2 -139 123 -176 179
-22 31 -41 59 -44 62 -3 3 -21 30 -40 60 -18 30 -35 57 -36 59 -2 1 -7 0 -13
-3 -6 -4 8 -37 35 -84 109 -185 221 -297 317 -317 24 -5 27 -8 17 -20 -7 -8
-20 -15 -29 -14 -12 0 -12 2 3 8 23 9 14 16 -33 26 -35 7 -45 13 -87 53 -28
25 -43 30 -24 7 11 -13 10 -14 -4 -9 -10 4 -16 1 -16 -7 0 -11 -3 -11 -10 1
-5 8 -10 11 -10 5 0 -5 5 -17 10 -25 7 -12 10 -12 10 -1 0 7 6 11 15 7 8 -3
15 -1 15 5 0 6 5 7 12 3 8 -5 6 -11 -5 -19 -15 -11 -14 -14 6 -33 13 -12 30
-22 38 -22 9 0 16 -7 16 -14 0 -20 -21 -8 -99 56 -94 77 -145 134 -200 228
-81 137 -93 190 -42 184 25 -2 25 -2 7 16 -17 17 -19 17 -40 -8 -13 -14 -23
-33 -23 -42 0 -28 85 -192 133 -255 50 -66 74 -89 160 -154 32 -24 55 -46 52
-49 -3 -3 -13 2 -22 11 -10 8 -30 19 -45 22 -16 4 -25 12 -21 18 3 6 1 7 -6 3
-17 -11 -4 -24 45 -48 25 -11 43 -23 40 -25 -3 -3 -26 6 -52 18 -74 37 -212
180 -257 267 -21 39 -35 72 -32 72 3 0 -2 12 -12 27 -13 19 -18 45 -17 92 1
47 -1 58 -6 36 -6 -23 -8 -25 -9 -8 0 12 8 46 19 75 11 29 20 69 21 88 2 19 6
40 10 45 4 6 0 19 -8 30 -11 14 -14 15 -10 3 6 -18 -13 -90 -37 -136 -22 -43
-90 -98 -200 -164 -53 -32 -98 -58 -102 -58 -16 0 13 23 47 36 21 9 37 20 34
25 -3 4 -21 -1 -40 -12 -20 -12 -35 -16 -35 -10 0 6 4 11 9 11 11 0 128 96
157 129 25 29 70 37 79 13 6 -16 7 -15 17 1 5 10 7 21 4 24 -3 4 -6 0 -6 -8 0
-11 -2 -12 -9 -1 -5 8 -4 24 3 38 13 29 30 32 21 4 -8 -25 10 -27 19 -2 3 9 9
23 12 30 6 14 -34 32 -54 24 -11 -4 -11 -6 0 -13 10 -7 10 -9 1 -9 -7 0 -13
-7 -13 -16 0 -14 -3 -14 -15 -4 -13 11 -14 8 -9 -19 6 -30 -9 -46 -18 -19 -3
7 -23 -6 -49 -31 -53 -52 -197 -149 -259 -175 -25 -10 -53 -22 -64 -28 -10 -5
-46 -16 -80 -23 l-61 -12 39 -8 c45 -9 152 21 222 61 49 29 58 30 42 5 -27
-44 -197 -91 -330 -91 -104 0 -101 -6 -42 115 37 77 129 189 146 179 6 -4 8
-3 5 3 -8 13 64 65 151 107 156 78 298 97 472 64z m-130 -300 c0 -31 35 -138
61 -190 67 -132 191 -261 303 -316 59 -29 84 -52 56 -52 -5 0 -10 -7 -10 -15
0 -19 3 -19 42 5 45 27 83 25 113 -5 72 -71 -37 -205 -155 -191 -44 6 -45 5
-73 -39 -69 -108 -228 -218 -355 -244 -68 -14 -176 -14 -244 0 -142 29 -320
155 -372 262 -51 105 -59 321 -18 487 18 71 20 75 48 78 92 8 196 26 249 44
77 25 255 122 303 164 44 40 52 41 52 12z m-1219 -29 c79 -27 141 -124 159
-251 19 -134 -23 -345 -106 -534 l-18 -42 -28 39 c-32 45 -66 51 -98 19 -27
-27 -26 -82 4 -147 l24 -51 -16 -103 -15 -103 -41 46 c-56 63 -144 120 -276
179 -60 27 -112 49 -116 49 -25 0 -193 119 -255 180 -93 92 -130 162 -137 258
-9 135 66 229 192 239 106 9 181 -25 306 -139 34 -32 66 -55 71 -52 5 3 9 20
9 37 0 51 28 153 55 208 36 70 92 128 150 155 56 27 86 29 136 13z m532 -227
c-57 -192 -52 -436 12 -565 22 -43 23 -50 10 -63 -18 -19 -20 -38 -2 -28 7 5
6 0 -3 -11 -14 -17 -16 -15 -24 30 -6 34 -5 50 2 53 7 2 4 18 -9 45 -10 23
-19 52 -19 65 0 12 -5 22 -11 22 -8 0 -9 -11 -4 -32 4 -18 7 -42 8 -53 0 -24
24 -132 36 -160 11 -25 29 -105 25 -105 -8 0 -34 76 -59 172 -47 183 -46 423
2 619 13 53 20 65 34 62 15 -4 15 -9 2 -51z m-519 -657 c48 -94 90 -139 171
-182 127 -67 284 -92 581 -93 l170 0 11 -92 c5 -51 9 -94 8 -96 -6 -9 -318 21
-400 38 -156 34 -348 115 -485 205 -36 23 -72 44 -80 47 -10 3 -13 17 -11 51
2 34 -5 63 -23 103 -26 57 -32 85 -19 98 18 17 40 -5 77 -79z m1996 -178 c61
-40 162 -81 228 -92 35 -6 41 -9 31 -21 -12 -15 -34 -20 -25 -6 2 4 -15 9 -40
10 -24 1 -44 -3 -44 -8 0 -6 4 -10 10 -10 5 0 7 -7 4 -15 -8 -19 1 -19 31 1
13 9 29 13 35 9 16 -10 2 -25 -18 -18 -9 3 -14 2 -9 -2 4 -5 0 -17 -10 -27
-19 -22 -41 -25 -23 -3 9 10 9 15 1 15 -6 0 -11 -4 -11 -10 0 -5 -11 -10 -25
-10 -24 0 -75 45 -75 65 0 5 7 1 15 -9 12 -15 17 -17 29 -7 8 7 20 10 26 6 5
-3 10 1 10 9 0 8 8 20 18 25 14 9 14 10 1 11 -8 0 -34 9 -57 20 -22 11 -47 20
-55 20 -7 0 -18 5 -25 12 -9 9 -15 8 -27 -8 -8 -10 -15 -14 -15 -8 0 5 5 15
11 21 8 8 8 13 0 17 -6 4 -11 2 -11 -4 0 -6 -5 -8 -10 -5 -6 4 -8 10 -5 15 3
5 -5 18 -17 29 -25 24 -47 28 -28 6 11 -14 7 -19 -13 -16 -4 1 -5 -10 -3 -25
3 -17 1 -24 -7 -21 -15 5 -17 37 -4 55 6 8 6 12 -2 12 -6 0 -11 5 -11 11 0 6
7 9 15 5 22 -8 18 1 -17 40 -59 64 -53 70 8 8 32 -34 84 -77 114 -97z m178
129 c56 -28 175 -66 207 -66 22 0 23 -2 12 -23 -7 -12 -24 -35 -38 -51 -26
-27 -27 -28 -58 -11 -18 9 -38 14 -44 12 -7 -3 -1 -10 13 -16 22 -10 19 -10
-19 -5 -31 4 -42 3 -37 -5 4 -6 13 -11 19 -10 7 1 19 -1 27 -4 8 -3 24 -8 35
-11 11 -3 -1 -3 -28 -1 -47 5 -147 34 -185 54 -18 10 -19 14 -9 43 7 18 17 36
22 40 6 5 3 8 -7 8 -9 0 -18 -4 -20 -9 -1 -5 -11 -3 -22 4 -26 19 -12 37 20
25 31 -12 37 -12 30 -1 -3 5 1 14 8 20 18 15 26 2 16 -24 -5 -13 -2 -24 9 -32
14 -11 13 -12 -6 -13 -13 0 -23 -4 -23 -9 0 -5 -2 -15 -5 -23 -9 -24 57 -51
105 -43 31 5 40 11 36 22 -5 12 -1 14 19 9 19 -5 23 -3 19 9 -4 8 -1 15 6 15
8 0 10 -8 7 -21 -5 -19 -3 -21 24 -15 21 4 28 2 23 -6 -4 -6 -3 -8 3 -5 6 4
16 20 21 36 10 27 9 29 -21 35 -19 4 -33 2 -35 -4 -5 -13 -42 -13 -42 0 0 5 7
7 15 4 8 -4 15 -1 15 5 0 10 -21 16 -42 12 -5 0 -8 4 -8 9 0 6 -4 10 -10 10
-5 0 -10 -7 -10 -15 0 -8 4 -15 9 -15 5 0 11 -9 14 -20 5 -19 -7 -28 -16 -12
-2 4 -2 1 -1 -5 2 -7 -2 -13 -9 -13 -9 0 -13 14 -12 43 1 39 -7 56 -28 57 -5
0 -6 -4 -3 -9 3 -5 -1 -11 -9 -14 -10 -4 -12 -1 -8 10 4 10 -3 23 -18 34 -33
26 -17 24 39 -5z m-895 -136 c9 -11 17 -27 17 -35 0 -28 -42 -126 -57 -132
-17 -6 -77 48 -99 89 -8 15 -14 38 -14 53 0 21 5 25 33 26 17 1 43 5 57 9 39
12 44 11 63 -10z m257 -46 c82 -29 180 -88 180 -109 0 -17 -117 -175 -129
-175 -5 0 -34 28 -65 61 -38 42 -60 60 -71 55 -19 -7 -9 -30 41 -92 44 -54 97
-83 123 -67 16 10 40 -10 199 -170 197 -200 218 -230 247 -362 20 -89 28 -105
58 -105 26 0 46 28 47 63 0 15 2 27 4 27 3 0 19 -13 37 -29 18 -16 56 -43 86
-58 l53 -29 -59 -70 c-145 -171 -379 -297 -608 -326 -130 -17 -138 -13 -194
97 -73 143 -118 263 -264 700 -76 226 -139 411 -140 413 -1 1 -10 0 -19 -4
-17 -7 -17 -18 0 -76 4 -15 -1 -18 -29 -18 l-35 0 -12 68 c-6 37 -14 90 -17
118 l-6 51 59 8 c50 6 60 4 69 -10 53 -90 129 -150 163 -129 30 19 60 73 78
143 l18 67 55 -8 c31 -4 90 -20 131 -34z m475 -464 c101 -142 146 -184 249
-233 88 -43 156 -89 156 -108 0 -17 -44 -9 -93 16 -63 32 -56 13 13 -33 58
-39 82 -80 38 -67 -12 5 -40 19 -61 32 -52 33 -59 21 -9 -14 43 -30 72 -73 49
-73 -17 0 -68 33 -132 85 -77 62 -95 58 -95 -21 0 -21 -4 -33 -10 -29 -5 3
-10 16 -10 28 0 49 -57 195 -96 245 -21 28 -108 117 -191 198 -84 81 -153 153
-153 161 0 7 17 36 38 64 l37 51 105 -109 c58 -60 132 -147 165 -193z"/>
<path d="M7045 9781 c-50 -46 -214 -153 -267 -173 -28 -10 -70 -18 -94 -17
-47 3 -59 15 -21 22 20 3 21 4 3 12 -14 6 -23 3 -32 -10 -8 -10 -14 -13 -14
-7 0 7 9 21 20 32 11 11 20 24 20 30 0 5 13 7 30 4 19 -4 30 -2 30 4 0 6 6 9
14 6 7 -3 16 2 20 11 3 9 0 18 -9 21 -18 7 -47 -14 -39 -27 6 -10 -9 -12 -19
-2 -4 3 0 15 10 25 9 10 12 18 7 18 -12 0 -64 -56 -64 -69 0 -5 -6 -14 -13
-18 -15 -9 -64 -107 -69 -138 -3 -18 3 -20 57 -22 33 -1 52 1 43 4 -10 2 -18
9 -18 14 0 5 -11 9 -25 9 -14 0 -25 5 -25 10 0 6 7 10 16 10 9 0 18 8 21 18 3
15 16 18 72 18 61 1 77 6 158 48 49 26 112 66 138 89 29 25 57 41 69 40 18 -2
18 -2 3 5 -16 7 -16 8 3 25 20 17 27 37 13 37 -5 0 -22 -13 -38 -29z"/>
<path d="M2546 9906 c-21 -8 -53 -28 -70 -45 l-31 -30 -27 20 c-16 12 -51 23
-82 26 -100 10 -211 -65 -231 -158 -6 -27 -9 -29 -45 -23 -74 12 -152 -33
-192 -110 -16 -30 -22 -59 -22 -111 l0 -71 -47 -21 c-96 -43 -139 -183 -85
-278 l26 -47 -32 -26 c-37 -31 -67 -94 -68 -140 0 -73 62 -152 121 -152 29 0
29 0 29 -62 0 -65 24 -133 58 -171 29 -33 93 -59 156 -64 54 -5 64 -10 89 -39
16 -19 36 -34 45 -34 12 0 13 -3 5 -11 -32 -32 -280 -14 -386 29 -36 14 -40
14 -69 -8 l-30 -22 -74 32 c-211 92 -357 220 -492 430 -44 69 -92 139 -106
155 -15 17 -41 54 -59 84 -42 72 -54 78 -114 63 -71 -19 -270 -120 -293 -149
-40 -51 -20 -83 49 -83 48 0 173 16 204 26 17 5 17 3 7 -16 -7 -12 -10 -30 -7
-40 10 -39 186 -302 279 -417 143 -177 253 -270 416 -352 91 -46 82 -55 -45
-48 -197 11 -375 74 -532 188 -142 104 -166 119 -188 119 -13 0 -23 3 -23 8 0
4 -15 17 -33 30 -59 39 -74 32 -184 -81 -122 -127 -155 -187 -118 -217 20 -16
72 -2 164 45 l64 32 135 -109 c74 -60 164 -126 201 -148 165 -98 353 -160 552
-182 l110 -12 14 -33 14 -33 89 0 c250 0 548 84 734 208 l38 25 98 -46 c282
-132 551 -151 826 -59 76 25 81 29 81 55 -1 24 2 27 20 22 11 -3 39 -8 63 -12
43 -6 44 -7 89 -97 83 -166 186 -306 224 -306 30 0 93 35 229 128 381 261 532
403 606 567 38 85 45 207 15 286 -27 71 -84 137 -147 169 -43 22 -62 25 -154
25 -100 0 -108 -2 -180 -36 -41 -20 -96 -55 -121 -77 l-47 -42 -12 48 c-19 78
-79 181 -124 214 -151 109 -369 48 -464 -130 -47 -88 -59 -177 -38 -294 8 -51
18 -102 22 -114 5 -20 1 -22 -67 -26 -106 -8 -262 7 -375 36 -90 22 -258 86
-277 105 -4 4 35 21 86 38 126 42 224 102 307 189 78 83 123 166 145 272 29
139 16 243 -45 379 l-30 67 29 30 c77 80 65 201 -24 243 -32 15 -35 20 -35 62
0 25 -9 64 -19 86 -19 44 -78 101 -119 116 -28 11 -130 14 -159 5 -13 -3 -26
6 -45 34 -58 84 -177 121 -272 86z m289 -489 c29 -20 114 -47 148 -47 43 0 88
-39 145 -124 155 -232 134 -514 -53 -701 -147 -147 -387 -224 -568 -181 -73
17 -136 45 -156 70 -19 23 -41 20 -73 -11 -41 -39 -96 -38 -138 2 -81 78 -46
185 62 185 25 0 46 8 65 24 23 20 28 32 27 70 0 24 -8 56 -18 70 -14 22 -14
30 -4 49 6 12 12 54 12 94 1 57 -3 77 -20 99 l-20 28 32 28 c17 15 37 40 43
55 11 26 15 28 69 28 46 0 66 5 95 25 45 31 77 86 80 138 l2 41 62 -6 c51 -5
69 -2 108 17 25 12 52 31 58 41 14 23 17 23 42 6z m1015 -708 c25 -11 56 -30
69 -42 36 -33 79 -132 93 -214 15 -90 25 -92 93 -22 220 224 525 182 575 -80
16 -86 -28 -230 -93 -303 -123 -137 -213 -217 -367 -327 -165 -117 -338 -231
-352 -231 -27 0 -218 306 -218 349 0 6 9 11 19 11 33 0 70 41 77 85 10 66 11
139 2 163 -5 16 -15 22 -37 22 -25 0 -30 4 -33 28 -3 24 -8 27 -44 30 -22 2
-60 -4 -83 -12 -41 -14 -42 -14 -51 10 -5 13 -17 63 -26 111 -36 195 23 340
168 413 74 36 141 40 208 9z m-1457 -358 c54 -27 89 -37 166 -45 l97 -11 -26
-66 -25 -66 -48 29 c-46 29 -83 31 -75 5 11 -33 280 -175 378 -199 83 -20 304
-15 418 10 67 14 95 16 97 8 2 -6 13 -47 24 -91 25 -97 27 -94 -97 -124 -261
-65 -506 -35 -754 90 -87 44 -137 77 -184 121 -34 33 -43 37 -52 25 -15 -18
13 -56 70 -98 l39 -28 -40 -26 c-83 -52 -256 -120 -391 -154 -107 -26 -351
-45 -362 -28 -36 55 -59 238 -46 370 9 97 61 213 111 251 l33 26 75 -22 c58
-17 101 -22 204 -22 125 -1 133 0 213 33 45 18 85 38 88 43 3 5 9 8 12 6 4 -2
38 -18 75 -37z m404 -136 c46 -20 136 -50 200 -67 107 -27 134 -30 286 -32
167 -1 167 -1 141 -20 -14 -11 -38 -20 -52 -22 -15 -1 -58 -10 -97 -19 -115
-26 -297 -31 -387 -11 -77 17 -242 90 -236 104 2 4 12 31 23 60 10 29 24 50
30 48 5 -3 47 -21 92 -41z m848 -85 c-3 -6 -26 -15 -51 -21 -43 -11 -62 -24
-50 -36 3 -3 34 0 70 7 35 6 74 9 86 5 22 -7 22 -7 3 -27 -13 -12 -39 -21 -76
-25 -87 -9 -72 -29 18 -25 43 2 75 0 75 -6 0 -17 -25 -30 -64 -34 -58 -5 -59
-28 -2 -28 56 0 62 -20 12 -44 -43 -20 -100 -20 -164 0 -49 16 -50 17 -67 78
l-17 61 37 32 c21 18 61 42 89 52 55 22 111 27 101 11z"/>
<path d="M5560 7382 c-8 -3 -18 -10 -22 -16 -7 -10 -50 -143 -78 -242 -12 -41
-13 -41 -31 -23 -23 23 -97 26 -139 4 -16 -8 -49 -42 -75 -75 -37 -48 -114
-110 -136 -110 -3 0 -5 33 -5 74 1 65 -2 77 -23 100 -29 30 -75 41 -114 27
-45 -18 -135 -112 -152 -161 -25 -71 -28 -149 -8 -190 25 -48 73 -74 121 -65
42 8 127 87 138 130 4 18 16 27 43 35 20 5 46 17 59 26 l24 16 -7 -44 c-9 -56
9 -123 38 -143 46 -32 122 -13 170 45 l25 30 7 -30 c8 -38 40 -60 87 -60 28 0
45 8 74 35 20 19 38 34 39 33 36 -65 82 -87 139 -68 36 12 100 75 128 128 12
23 24 32 41 32 40 0 121 60 125 93 2 15 1 27 -1 27 -3 0 -28 -16 -57 -35 -29
-19 -57 -35 -64 -35 -8 0 -11 20 -8 68 4 62 2 71 -22 99 -32 38 -64 47 -117
33 -28 -8 -46 -20 -57 -41 -9 -16 -25 -32 -34 -35 -29 -9 -56 -56 -76 -132
-11 -39 -31 -87 -46 -107 -30 -39 -73 -56 -87 -34 -26 41 10 203 100 459 23
63 41 122 41 131 0 19 -18 28 -40 21z m-150 -327 c29 -35 -20 -195 -77 -250
-39 -38 -86 -47 -97 -19 -10 27 -7 88 9 140 30 101 126 176 165 129z m-487
-151 c14 -10 33 -24 42 -29 15 -9 16 -14 5 -35 -21 -42 -63 -80 -86 -80 -51 0
-67 72 -38 170 l16 53 18 -30 c10 -16 29 -38 43 -49z m783 41 c10 -21 33 -45
55 -58 45 -26 47 -34 17 -73 -31 -40 -49 -53 -75 -54 -37 0 -57 41 -49 103 5
50 24 117 32 117 1 0 11 -16 20 -35z"/>
<path d="M4481 7356 c-67 -11 -89 -29 -77 -61 7 -19 13 -19 169 3 31 5 57 5
57 0 0 -4 -13 -49 -30 -100 -55 -174 -110 -439 -97 -472 7 -17 62 -23 71 -8 3
5 12 55 21 112 16 108 84 384 110 446 l15 35 102 -3 103 -3 0 25 c0 21 -6 26
-40 32 -62 11 -333 7 -404 -6z"/>
<path d="M1840 6836 c-119 -28 -213 -69 -311 -138 -39 -27 -82 -46 -134 -59
-107 -26 -161 -55 -226 -119 -44 -44 -63 -74 -93 -145 -20 -49 -45 -98 -54
-108 -23 -26 -73 -50 -157 -76 -126 -40 -204 -102 -249 -200 -19 -41 -21 -61
-19 -186 3 -125 1 -143 -17 -173 -39 -63 -128 -77 -145 -23 -3 12 -13 21 -21
21 -18 0 -44 -58 -44 -97 1 -42 33 -105 71 -137 33 -28 34 -32 35 -100 0 -54
6 -84 26 -126 25 -55 91 -130 113 -130 7 0 33 -24 59 -54 46 -54 113 -96 154
-96 12 0 22 -5 22 -12 0 -44 -294 -490 -444 -671 -31 -38 -56 -77 -56 -88 0
-19 177 -205 240 -252 l34 -26 -12 -108 c-17 -151 -193 -1012 -225 -1098 -8
-22 -17 -58 -20 -79 -6 -37 -4 -42 63 -110 71 -73 150 -128 219 -152 53 -18
71 -10 71 32 0 40 -29 101 -95 199 l-46 70 29 80 c17 44 58 152 92 240 102
266 279 734 316 835 39 111 41 103 19 -121 -18 -190 -34 -311 -79 -594 -19
-121 -42 -267 -51 -325 -9 -58 -20 -119 -25 -136 -6 -17 -10 -39 -10 -50 0
-48 136 -165 254 -218 64 -29 103 -31 119 -5 15 23 -28 106 -99 193 -56 68
-57 70 -44 104 7 19 36 128 65 241 53 207 127 484 187 705 l33 120 65 11 c36
6 70 14 76 17 6 4 14 63 17 145 7 142 30 360 39 369 3 3 54 -22 114 -55 60
-33 129 -65 153 -72 42 -13 44 -12 66 15 l22 27 69 -35 c38 -19 97 -42 131
-53 56 -16 62 -21 68 -49 8 -47 91 -212 136 -271 25 -33 47 -53 59 -53 39 0
400 194 565 302 323 213 442 418 357 612 -86 194 -314 237 -514 97 l-56 -39
-16 82 c-29 143 -103 255 -202 306 -68 35 -169 35 -237 0 -118 -59 -200 -201
-216 -372 l-6 -70 -41 73 c-38 68 -104 226 -104 248 0 5 22 23 49 41 97 62
168 167 178 265 l5 52 48 12 c127 33 272 175 363 356 19 39 35 55 69 71 135
66 209 204 209 391 1 205 -92 368 -257 451 -40 20 -70 44 -88 71 -70 100 -193
179 -336 215 -88 23 -260 29 -330 12z m255 -50 c74 -12 204 -57 230 -78 5 -4
26 -21 46 -36 89 -69 133 -143 127 -214 -6 -59 -45 -105 -123 -146 -44 -22
-66 -26 -180 -31 -71 -4 -137 -10 -145 -15 -8 -5 -45 -31 -82 -58 -78 -57
-154 -86 -244 -95 -52 -5 -64 -3 -64 9 0 8 -13 35 -30 61 -27 42 -28 47 -12
56 9 6 12 11 7 11 -6 0 -16 -5 -23 -12 -9 -9 -16 -8 -30 5 -10 9 -32 18 -48
18 -16 1 7 8 51 15 44 8 103 13 130 11 28 -2 64 0 80 5 44 14 98 39 111 52 7
6 39 37 73 68 81 76 112 91 195 94 87 4 136 -15 210 -81 66 -58 76 -63 76 -40
0 26 -99 115 -155 140 l-49 22 29 17 c27 15 27 16 5 10 -14 -3 -30 -12 -36
-20 -8 -10 -24 -12 -55 -9 -28 4 -72 -2 -119 -14 -41 -11 -68 -20 -60 -20 18
-1 -69 -80 -88 -81 -7 0 -11 -4 -8 -9 3 -4 -10 -17 -29 -27 -19 -10 -35 -23
-35 -29 0 -5 -4 -4 -9 3 -6 10 -18 11 -49 3 -28 -6 -42 -5 -42 1 0 6 -6 5 -15
-2 -12 -10 -15 -10 -15 3 0 8 7 17 15 21 8 3 15 1 15 -5 0 -6 14 -7 38 -3 43
8 67 24 34 24 -15 0 -20 5 -16 15 4 8 1 15 -5 15 -6 0 -11 -7 -11 -15 0 -8 -7
-15 -16 -15 -25 0 -13 44 14 48 22 3 33 42 12 42 -5 0 -10 -7 -10 -15 0 -8 -7
-15 -15 -15 -8 0 -18 -14 -23 -32 -6 -24 -14 -32 -26 -30 -12 2 -16 -1 -10 -9
5 -9 2 -10 -9 -6 -10 3 -17 2 -17 -4 0 -6 -7 -6 -20 1 -14 7 -20 7 -20 0 0 -5
5 -10 10 -10 6 0 10 -4 10 -10 0 -5 -7 -10 -15 -10 -8 0 -15 -5 -15 -11 0 -6
9 -9 20 -6 11 3 23 1 26 -4 3 -5 -11 -9 -31 -9 -40 0 -55 21 -36 51 9 15 8 19
-4 19 -8 0 -14 -3 -14 -7 1 -5 1 -22 0 -39 -1 -30 -4 -32 -50 -38 -27 -3 -63
-14 -80 -22 -33 -17 -57 -11 -31 7 12 8 11 9 -5 7 -14 -3 -19 -11 -17 -27 1
-14 -2 -21 -10 -19 -16 6 -23 48 -8 48 6 0 8 5 5 10 -3 6 5 10 18 10 25 0 44
25 27 35 -6 4 -10 -1 -10 -9 0 -15 -15 -19 -65 -18 -17 1 -17 0 -2 -4 9 -3 15
-10 11 -15 -3 -5 -10 -6 -16 -3 -6 4 -8 2 -5 -4 4 -5 4 -18 1 -27 -5 -12 -14
-15 -38 -10 -21 4 -27 3 -17 -3 7 -5 10 -15 7 -21 -4 -6 -5 -11 -2 -11 2 0 12
-3 22 -7 11 -4 15 -3 10 5 -3 6 2 16 13 21 24 13 31 14 31 3 0 -12 -75 -92
-85 -92 -5 0 -4 5 3 12 17 17 15 31 -4 20 -23 -13 -64 -3 -57 14 8 23 -10 16
-34 -13 -13 -14 -23 -21 -23 -15 0 6 7 17 15 26 8 8 15 19 15 25 0 6 7 11 15
11 8 0 15 4 15 10 0 12 32 42 79 74 46 32 204 90 198 73 -2 -7 -12 -14 -23
-15 -27 -5 -34 -14 -38 -50 -4 -30 -3 -31 27 -25 18 3 37 9 43 14 5 4 20 6 31
3 19 -5 21 -2 18 22 -2 16 -4 37 -4 47 -1 14 -6 17 -22 12 -32 -11 -16 7 28
30 21 11 44 26 52 33 7 7 20 11 28 8 8 -3 12 -2 9 3 -3 5 13 21 37 37 23 16
44 31 47 34 6 7 72 35 130 55 25 9 95 19 160 22 106 5 121 3 189 -20 77 -27
92 -28 72 -3 -10 11 -8 15 6 19 10 3 -1 5 -24 6 -27 1 -43 6 -43 14 0 9 -38
13 -149 16 -141 3 -155 1 -228 -23 -43 -15 -92 -35 -109 -44 -58 -32 -164
-105 -164 -114 0 -4 -6 -8 -12 -8 -7 0 -25 -6 -39 -14 -15 -7 -51 -21 -80 -31
-111 -35 -193 -79 -241 -129 -26 -27 -48 -53 -48 -58 0 -5 -5 -6 -10 -3 -6 4
-9 3 -8 -2 1 -4 -1 -18 -6 -30 -10 -32 -30 -29 -22 2 7 29 1 32 -21 9 -10 -10
-12 -18 -6 -22 23 -16 21 -44 -6 -96 -35 -66 -67 -99 -89 -93 -14 4 -13 6 6
12 18 6 20 10 11 21 -6 8 -19 14 -28 13 -10 0 -11 -2 -3 -6 20 -8 14 -26 -8
-20 -11 3 -23 1 -26 -4 -3 -5 2 -9 10 -9 9 0 16 -5 16 -11 0 -6 -7 -8 -16 -5
-8 3 -12 2 -9 -4 3 -6 -2 -10 -12 -10 -10 0 -31 -9 -48 -20 -35 -23 -46 -25
-39 -7 3 8 -2 20 -11 27 -8 7 -15 8 -15 2 0 -5 -8 -8 -18 -5 -13 3 -18 -2 -18
-16 0 -19 2 -19 23 -6 37 24 40 -13 5 -62 -10 -15 -22 -40 -26 -55 -3 -16 -11
-28 -16 -28 -12 0 -13 17 -2 22 5 2 12 18 15 36 4 21 3 31 -3 27 -6 -3 -10
-17 -10 -31 0 -13 -4 -24 -10 -24 -5 0 -10 5 -10 12 0 9 -3 9 -11 1 -7 -7 -8
-19 -4 -30 5 -10 7 -24 6 -30 -1 -7 5 -13 14 -13 9 0 15 -6 12 -12 -2 -7 -11
-12 -20 -10 -12 2 -15 -2 -11 -15 5 -15 4 -15 -5 -3 -15 21 -25 5 -11 -19 10
-19 7 -25 -12 -22 -8 1 -12 -21 -9 -51 1 -10 -3 -18 -9 -18 -8 0 -10 13 -5 40
4 22 4 40 2 40 -3 0 -11 -34 -18 -76 -8 -53 -16 -74 -25 -70 -7 3 -18 -2 -24
-10 -9 -10 -9 -14 -1 -14 6 0 11 -7 11 -17 0 -9 -3 -13 -6 -10 -10 10 -44 -12
-44 -28 0 -8 7 -15 15 -15 17 0 19 -9 5 -30 -8 -13 -10 -12 -10 3 0 21 -16 23
-24 2 -3 -8 0 -15 7 -15 8 0 6 -4 -3 -10 -21 -14 -102 -12 -121 3 -20 15 -49
70 -49 94 0 13 3 14 12 5 16 -16 83 -15 116 2 34 18 65 51 87 96 15 30 17 51
11 155 -7 141 6 192 66 259 32 35 39 39 49 26 9 -13 10 -12 5 3 -5 15 7 24 59
48 35 16 69 29 74 29 29 0 121 44 149 71 18 17 32 26 32 20 0 -7 5 -9 11 -5 8
4 7 9 -2 14 -9 6 -10 12 -2 22 7 7 21 40 33 73 48 129 152 220 280 243 77 14
103 26 173 76 99 70 193 110 302 129 53 9 148 6 220 -7z m523 -318 c83 -57
127 -117 162 -221 19 -56 22 -82 18 -174 -3 -102 -6 -112 -42 -183 -23 -46
-55 -90 -82 -114 -25 -21 -46 -37 -48 -35 -2 2 2 33 10 69 16 78 18 198 3 237
-6 15 -26 51 -44 79 -30 45 -83 209 -72 221 8 7 92 -94 114 -138 38 -75 43
-122 30 -274 l-8 -80 20 48 c58 143 23 314 -88 427 -49 50 -51 55 -41 83 5 16
10 43 10 58 0 16 3 29 6 29 3 0 26 -14 52 -32z m-126 -230 c10 -40 32 -95 50
-123 60 -95 61 -101 55 -194 -7 -107 -28 -185 -72 -278 -45 -95 -81 -147 -152
-217 -171 -168 -376 -166 -606 8 -86 64 -157 157 -197 260 -32 81 -32 83 -14
189 5 32 2 43 -17 63 -20 22 -30 25 -61 20 -32 -5 -40 -3 -53 18 -37 56 -27
141 21 189 66 66 164 13 164 -88 0 -24 2 -25 63 -25 69 0 196 28 249 56 18 9
59 37 91 62 l58 46 132 6 c134 7 188 21 242 64 11 8 22 15 25 16 3 0 13 -33
22 -72z m-1464 -279 c-10 -5 -18 -17 -18 -24 0 -18 27 -20 33 -2 2 6 4 -6 3
-27 0 -23 -6 -40 -14 -42 -7 -1 -8 0 -2 3 17 8 12 43 -7 43 -39 -1 -88 -70
-50 -70 9 0 9 -2 -1 -9 -7 -4 -24 -6 -38 -3 -17 3 -24 0 -24 -12 0 -9 -8 -16
-17 -15 -11 0 -13 3 -5 6 6 2 12 17 13 31 0 15 3 21 6 15 2 -7 10 -13 16 -13
6 0 3 8 -6 18 -17 16 -19 16 -30 -3 -6 -11 -17 -35 -23 -52 -11 -31 -10 -33
12 -33 18 0 22 -4 17 -17 -4 -11 -8 -13 -11 -5 -2 7 -7 10 -11 8 -4 -3 -13 -1
-21 4 -12 7 -12 17 -1 62 8 29 21 63 28 75 18 26 66 53 107 58 16 3 31 7 34
10 3 3 10 5 16 5 6 0 3 -5 -6 -11z m680 -542 l41 -42 -13 -45 c-7 -25 -17 -72
-21 -106 -3 -33 -10 -65 -13 -70 -7 -8 -109 -74 -117 -74 -6 0 -92 154 -99
177 -5 14 2 50 15 93 23 69 23 70 58 70 20 0 50 9 66 19 17 11 32 20 35 20 3
1 25 -18 48 -42z m-242 0 c2 -2 -11 -59 -31 -126 -19 -68 -35 -131 -35 -142 0
-10 -4 -19 -10 -19 -5 0 -10 9 -10 19 0 33 -11 51 -32 51 -18 0 -19 -4 -13
-37 12 -64 76 -255 105 -313 90 -177 244 -337 467 -485 l73 -48 -52 -98 c-28
-55 -57 -99 -65 -99 -7 0 -42 14 -76 31 -226 113 -388 247 -516 427 -72 100
-112 195 -137 320 -15 75 -22 92 -36 92 -14 0 -18 -8 -18 -38 0 -61 37 -190
80 -279 22 -44 40 -85 40 -90 0 -44 -145 -418 -267 -691 -63 -139 -51 -133
-158 -80 -107 54 -198 121 -287 212 -49 49 -88 94 -88 101 0 7 9 20 21 31 19
17 141 174 179 231 204 301 254 382 353 572 91 175 148 263 217 331 100 99
183 144 253 136 21 -2 41 -6 43 -9z m344 -272 c52 -223 148 -470 227 -579 29
-40 39 -67 49 -123 6 -40 9 -75 6 -78 -3 -3 -25 -5 -50 -5 -38 0 -58 9 -131
57 -101 68 -165 129 -175 167 -5 19 3 55 28 124 40 109 71 236 61 252 -16 25
-35 7 -50 -47 -24 -88 -75 -255 -87 -285 l-10 -28 -18 23 c-17 22 -17 26 17
142 19 66 49 204 66 307 17 104 34 185 37 180 4 -4 17 -52 30 -107z m276 105
l31 0 -8 -44 c-12 -64 -32 -105 -74 -154 -38 -43 -113 -98 -122 -89 -7 8 -43
151 -38 156 3 2 10 -9 17 -25 l12 -29 4 33 c3 27 7 32 28 32 16 0 23 4 18 11
-7 13 15 31 29 22 4 -2 3 -11 -4 -19 -9 -11 -8 -14 5 -14 9 0 16 8 16 19 0 42
29 73 31 34 1 -16 2 -16 6 0 4 14 12 18 31 15 23 -3 27 0 27 19 0 19 -5 23
-35 24 -19 1 -46 5 -60 10 -20 7 -17 8 15 4 22 -3 54 -5 71 -5z m-557 -174
c12 -19 30 -38 41 -41 22 -7 78 15 103 39 16 16 17 16 17 -6 0 -61 -76 -368
-91 -368 -13 0 -105 152 -138 227 -32 74 -39 134 -22 189 5 16 12 42 16 58 l6
29 24 -46 c12 -25 33 -62 44 -81z m986 -97 c106 -56 185 -212 185 -366 0 -34
5 -65 10 -68 6 -4 33 14 61 39 28 25 83 62 123 81 127 63 227 57 312 -18 79
-69 109 -163 84 -266 -33 -139 -216 -307 -525 -481 -55 -31 -117 -67 -138 -79
-21 -12 -79 -42 -129 -68 l-91 -46 -24 29 c-26 31 -133 241 -133 260 0 6 12
14 28 17 35 7 42 0 11 -12 -17 -7 -19 -10 -6 -10 9 -1 17 -9 17 -18 0 -15 -2
-16 -10 -3 -6 9 -10 10 -10 3 0 -22 12 -43 26 -43 17 0 16 -3 5 37 -6 20 -6
35 0 39 5 3 7 9 5 12 -8 13 20 53 44 65 27 14 40 50 46 128 3 46 0 60 -16 74
-11 10 -18 20 -16 24 2 3 -6 7 -17 8 -12 2 -63 8 -114 15 l-92 11 -10 62 c-14
78 -14 266 0 325 13 55 50 131 90 181 65 82 197 114 284 68z m-1164 -574 l68
-70 -37 -165 c-20 -91 -37 -167 -39 -169 -5 -7 -149 17 -206 35 -29 9 -58 18
-65 20 -10 3 -9 12 4 41 38 89 68 166 110 283 24 69 46 131 49 139 4 9 12 5
27 -15 12 -16 52 -60 89 -99z m177 -157 c7 -9 7 -30 1 -63 -12 -69 -39 -350
-39 -407 0 -52 0 -52 -91 -63 l-55 -6 26 148 c24 130 70 355 87 420 l5 23 27
-20 c15 -10 33 -25 39 -32z m802 20 c54 -25 36 -34 -49 -23 -68 9 -65 9 -69
-3 -2 -6 23 -16 55 -22 87 -17 93 -20 93 -42 0 -19 -4 -20 -96 -13 -71 6 -95
5 -90 -4 4 -6 19 -11 34 -11 42 0 128 -25 122 -36 -3 -5 -35 -8 -72 -7 -38 1
-68 -2 -68 -6 0 -5 20 -14 46 -21 29 -8 42 -16 35 -23 -18 -18 -133 11 -229
58 l-92 44 32 65 33 65 70 4 c109 6 196 -3 245 -25z"/>
<path d="M3656 6498 c-19 -30 -110 -333 -126 -421 -25 -136 1 -197 82 -197 34
0 47 7 80 40 45 45 48 46 48 24 0 -8 13 -29 29 -45 32 -31 68 -37 118 -18 33
12 97 80 113 119 8 20 21 30 44 34 43 8 122 61 129 85 2 10 1 25 -4 32 -6 11
-13 9 -31 -8 -23 -21 -88 -63 -98 -63 -3 0 -4 34 -2 75 4 72 3 75 -26 105 -25
25 -39 30 -77 30 -40 0 -52 -5 -85 -37 -22 -21 -52 -50 -67 -64 -17 -15 -36
-50 -47 -85 -25 -81 -51 -128 -82 -153 -107 -84 -96 76 30 436 20 56 33 109
30 118 -9 22 -41 18 -58 -7z m216 -425 c11 -12 31 -24 44 -27 33 -9 30 -34 -7
-79 -24 -29 -37 -37 -64 -37 -30 0 -35 4 -45 36 -13 37 -8 92 12 153 l11 34
15 -29 c8 -16 23 -39 34 -51z"/>
<path d="M6076 6478 c-9 -24 -28 -81 -42 -128 -14 -47 -28 -87 -29 -89 -2 -1
-14 4 -27 13 -48 34 -145 7 -187 -53 -34 -47 -69 -132 -76 -182 -8 -57 9 -124
38 -144 44 -31 124 -12 165 40 24 30 32 32 32 7 0 -32 42 -62 87 -62 32 0 47
7 76 35 40 39 47 42 47 20 0 -27 38 -55 76 -55 41 0 68 12 107 48 15 14 27 20
27 13 0 -26 48 -61 86 -61 29 0 44 8 77 41 28 28 43 37 46 27 2 -7 18 -25 34
-40 57 -54 182 -31 239 44 37 48 58 93 58 123 0 38 -22 30 -48 -17 -12 -24
-31 -54 -42 -68 l-20 -25 0 39 c0 23 -16 74 -40 128 -27 59 -40 101 -38 124 2
36 -14 56 -38 47 -7 -3 -22 -29 -33 -59 -34 -90 -117 -248 -149 -282 -33 -35
-53 -40 -72 -17 -16 19 -7 71 37 209 36 114 34 147 -6 107 -25 -25 -31 -26
-31 -6 0 37 -84 47 -136 14 -48 -29 -85 -81 -142 -197 -52 -106 -81 -142 -114
-142 -61 0 -37 131 87 490 28 83 27 100 -9 100 -20 0 -27 -8 -40 -42z m-103
-269 c14 -23 -18 -152 -50 -200 -47 -71 -116 -94 -129 -43 -17 69 27 200 83
244 31 24 80 24 96 -1z m417 6 c40 -48 -69 -275 -132 -275 -49 0 -46 97 5 193
45 86 96 119 127 82z m309 -72 c34 -100 40 -133 30 -163 -14 -38 -44 -48 -77
-23 -46 34 -48 65 -10 148 18 41 36 75 39 75 3 0 11 -17 18 -37z"/>
<path d="M4540 6281 c-123 -38 -199 -158 -187 -295 5 -49 10 -65 32 -83 34
-30 83 -30 128 1 l35 24 -14 -49 c-8 -27 -21 -72 -29 -101 -19 -66 -19 -94 1
-102 33 -13 49 11 72 106 l23 94 42 11 c23 7 59 23 79 37 l37 25 19 -33 c33
-57 106 -52 167 11 22 23 35 30 35 21 0 -8 9 -27 21 -42 34 -43 124 -30 162
25 15 21 15 20 49 -16 45 -49 101 -57 176 -25 65 28 132 100 132 141 0 42 -21
36 -60 -16 -43 -57 -124 -101 -161 -86 -66 25 -65 75 3 101 84 32 146 93 163
163 10 40 -19 85 -59 93 -97 18 -172 -59 -240 -248 -23 -61 -68 -111 -98 -106
-21 3 -23 8 -23 63 0 42 10 91 34 162 33 100 35 133 7 133 -25 0 -42 -26 -75
-117 -60 -166 -128 -262 -169 -237 -30 19 -25 71 19 199 40 117 45 155 17 155
-28 0 -41 -22 -84 -136 -25 -65 -57 -134 -71 -152 -25 -33 -87 -71 -98 -60 -6
6 31 147 60 227 21 61 20 68 -22 90 -48 24 -91 32 -123 22z m73 -72 c6 -24
-36 -171 -59 -206 -16 -25 -71 -63 -91 -63 -6 0 -19 8 -28 17 -30 29 -3 165
43 217 48 54 125 74 135 35z"/>
<path d="M8385 6004 c-11 -2 -50 -11 -88 -20 -178 -41 -375 -171 -493 -327
-178 -235 -209 -532 -96 -917 44 -150 45 -160 47 -304 2 -117 6 -151 17 -157
8 -4 52 -13 98 -18 91 -12 95 -10 107 42 8 39 23 44 23 8 0 -50 21 -61 118
-61 154 0 307 49 407 129 63 51 57 10 -10 -74 -18 -22 -60 -83 -95 -135 -35
-52 -78 -114 -97 -137 -19 -24 -32 -47 -29 -51 12 -19 -109 -144 -222 -229
-120 -90 -334 -194 -397 -192 -47 1 -80 14 -77 30 2 7 7 47 12 88 28 250 -118
433 -334 419 -148 -10 -275 -116 -346 -291 l-24 -58 -55 55 c-151 148 -334
194 -471 120 -104 -57 -160 -157 -160 -287 1 -221 147 -388 675 -773 61 -44
129 -91 152 -104 l43 -24 26 25 c57 53 286 379 349 497 23 43 33 52 55 52 34
0 125 27 170 50 19 10 76 27 125 39 93 21 198 62 321 124 78 39 250 164 303
221 19 20 42 36 50 36 8 0 36 20 61 45 l46 46 13 -79 c41 -273 40 -668 -4
-987 -17 -119 -17 -119 80 -146 37 -10 70 -20 72 -23 2 -2 -5 -150 -17 -327
-11 -178 -26 -408 -32 -510 l-11 -187 -82 -65 c-70 -56 -145 -143 -145 -168 0
-4 8 -15 17 -24 41 -41 239 26 329 111 34 31 34 32 33 115 -2 105 51 413 152
895 l32 151 80 12 c43 7 80 11 81 9 1 -2 12 -30 25 -63 42 -107 131 -272 194
-362 34 -49 120 -146 191 -218 l128 -129 -21 -93 c-47 -206 -14 -277 82 -174
63 67 137 213 137 270 0 17 -29 54 -98 125 -196 201 -295 382 -352 641 -11 50
-20 93 -20 97 0 3 17 17 38 29 45 28 142 118 142 132 0 6 -24 58 -54 116 -29
58 -93 197 -140 309 -48 111 -102 235 -121 274 -19 40 -32 74 -30 76 2 3 28
-18 57 -46 58 -55 159 -138 225 -183 31 -22 45 -41 58 -78 19 -57 72 -141 89
-141 20 0 36 23 36 52 0 33 4 34 55 8 40 -20 109 -26 133 -12 17 11 31 167 17
195 -13 28 -58 49 -164 77 l-84 23 -126 126 c-69 69 -151 160 -182 201 -31 41
-101 136 -157 210 -102 138 -218 262 -289 309 l-39 27 55 24 c105 45 159 86
170 128 6 20 11 44 12 52 1 8 4 2 8 -15 10 -47 37 -41 120 23 105 81 103 73
63 182 -3 8 9 0 27 -17 18 -18 38 -33 45 -33 15 0 89 98 124 163 34 65 30 79
-40 135 -102 81 -190 197 -268 352 -181 361 -432 555 -735 565 -55 2 -109 2
-120 -1z m-149 -506 c35 -71 83 -129 150 -180 55 -43 65 -58 40 -58 -15 0 -42
-28 -34 -36 3 -3 25 3 48 12 40 16 45 16 109 -5 53 -17 163 -41 192 -41 10 0
66 -156 89 -244 11 -45 20 -112 20 -154 0 -67 -3 -81 -31 -123 -55 -86 -170
-165 -284 -195 -67 -18 -207 -18 -280 1 -114 30 -238 125 -313 239 -38 59 -90
190 -98 250 -6 42 -6 43 33 59 22 8 62 29 89 45 28 16 67 35 87 41 39 13 50
31 18 31 -17 0 -15 6 16 53 69 101 112 223 113 320 0 20 2 37 5 37 2 0 17 -24
31 -52z m474 -1022 c0 -16 21 -40 47 -55 15 -8 14 -15 -11 -64 -30 -63 -52
-75 -95 -53 -38 20 -39 21 -42 86 l-4 55 45 22 c54 26 60 27 60 9z m203 -72
c43 -23 209 -192 278 -284 30 -41 95 -129 144 -195 50 -67 145 -175 215 -246
l126 -125 -18 -30 c-11 -16 -23 -35 -27 -43 -16 -27 -206 133 -484 408 -103
102 -196 187 -207 189 -37 6 -21 -28 38 -86 33 -32 98 -98 146 -148 96 -101
76 -61 308 -599 33 -77 83 -185 111 -240 l50 -100 -49 -42 c-92 -82 -245 -146
-414 -174 -118 -20 -341 -16 -420 7 l-65 20 2 44 c1 25 8 112 17 194 23 217
21 573 -4 769 -30 233 -78 427 -106 427 -18 0 -18 -9 6 -120 11 -51 20 -97 20
-100 0 -4 -19 -28 -42 -54 l-41 -48 -77 77 -77 77 108 156 c60 87 111 162 113
167 2 6 16 -2 32 -17 94 -87 156 -52 225 129 9 25 21 23 92 -13z m-1532 -364
c47 -13 124 -81 150 -132 32 -63 45 -180 28 -258 -11 -52 -18 -65 -34 -66 -11
0 -34 -1 -51 -2 -41 -2 -72 -29 -80 -67 -7 -42 14 -67 65 -74 l42 -6 -53 -105
c-29 -58 -82 -148 -117 -200 -87 -130 -231 -320 -246 -326 -24 -10 -448 305
-589 437 -132 123 -217 256 -231 360 -18 127 63 264 174 298 144 43 299 -27
449 -202 36 -42 62 -44 62 -4 0 33 35 131 62 176 50 81 129 148 203 172 32 11
126 10 166 -1z m1058 -227 c2 -18 -116 -119 -220 -189 -140 -94 -313 -168
-466 -199 -43 -9 -87 -24 -98 -34 -11 -10 -41 -23 -67 -30 -82 -19 -83 -18
-49 46 17 31 31 60 31 65 0 4 -29 8 -64 8 -73 0 -93 18 -51 46 19 12 39 14 92
9 157 -15 193 -12 275 24 157 67 364 211 453 316 l48 55 57 -52 c32 -29 58
-58 59 -65z m1391 -314 c67 -19 110 -43 110 -60 0 -12 -46 -5 -108 18 -72 27
-58 6 22 -31 45 -20 76 -41 76 -50 0 -18 -35 -10 -95 23 -22 11 -43 21 -48 21
-18 0 6 -19 55 -45 61 -31 78 -44 78 -56 0 -30 -110 10 -162 59 -31 28 -30 29
-28 -47 2 -68 -11 -61 -46 29 -29 75 -26 102 16 148 21 22 23 22 130 -9z"/>
<path d="M4068 5523 c-17 -4 -18 -28 -18 -322 0 -366 3 -382 79 -460 62 -64
125 -85 230 -79 82 5 120 20 176 70 76 66 78 76 88 428 4 173 5 325 2 338 -5
21 -10 23 -68 20 l-62 -3 -5 -317 c-5 -300 -6 -318 -26 -345 -33 -46 -80 -65
-143 -59 -31 3 -66 13 -80 24 -54 39 -56 53 -59 382 -2 271 -4 306 -19 318
-16 12 -60 14 -95 5z"/>
<path d="M5373 5523 c-10 -4 -13 -99 -13 -428 0 -376 2 -424 16 -429 24 -9
397 -7 412 3 9 5 12 25 10 62 l-3 54 -150 5 -150 5 -3 359 c-2 273 -5 362 -15
368 -13 8 -84 9 -104 1z"/>
<path d="M3372 5512 c-29 -2 -42 -7 -39 -15 5 -15 35 -121 91 -322 107 -386
138 -490 148 -502 12 -15 135 -18 156 -5 7 5 24 51 38 103 14 52 54 200 89
329 102 377 106 392 101 407 -4 10 -22 13 -68 11 l-61 -3 -52 -205 c-29 -113
-67 -267 -84 -342 -18 -76 -36 -138 -39 -138 -4 0 -44 150 -90 333 -46 182
-86 335 -90 338 -11 10 -54 15 -100 11z"/>
<path d="M4770 5102 c0 -312 3 -421 12 -430 17 -17 419 -17 436 0 7 7 12 29
12 49 0 71 4 69 -160 69 -108 0 -151 3 -156 12 -10 16 -15 176 -7 206 5 21 10
22 113 22 60 0 115 3 124 6 12 5 16 21 16 65 l0 59 -124 0 c-120 0 -124 1
-130 23 -8 29 -8 146 0 186 l7 31 142 0 142 0 6 33 c3 18 3 45 0 60 l-5 27
-214 0 -214 0 0 -418z"/>
<path d="M5782 5511 c-11 -6 -5 -36 26 -147 22 -76 54 -191 72 -254 92 -331
123 -436 134 -442 19 -13 141 -9 158 5 8 6 30 66 47 132 18 66 41 152 52 190
83 299 129 479 129 500 0 24 -3 25 -59 25 -33 0 -63 -4 -66 -10 -3 -5 -44
-161 -90 -346 -46 -185 -86 -339 -89 -341 -3 -3 -8 0 -11 8 -6 16 -165 645
-165 653 0 2 -7 12 -16 20 -17 17 -99 22 -122 7z"/>
<path d="M6520 5100 c0 -404 1 -420 19 -430 12 -6 101 -10 220 -10 188 0 201
1 211 19 11 22 13 71 4 95 -5 14 -29 16 -155 16 l-149 0 -11 28 c-11 27 -7
197 4 209 3 3 55 5 115 4 124 -2 142 6 142 64 0 65 0 65 -135 65 -103 0 -124
3 -129 16 -11 29 -7 199 6 212 8 8 56 12 150 12 l138 0 0 60 0 60 -215 0 -215
0 0 -420z"/>
<path d="M4511 4120 c-121 -19 -240 -108 -226 -170 5 -22 0 -27 -41 -44 -65
-27 -138 -88 -180 -151 -63 -95 -47 -169 44 -201 l48 -17 -19 -38 c-29 -60
-44 -163 -28 -202 8 -21 13 -93 15 -217 1 -175 3 -189 28 -253 84 -209 239
-318 501 -350 53 -6 97 -16 97 -22 -1 -15 -201 -147 -294 -194 -255 -129 -485
-141 -794 -39 -66 21 -97 27 -104 20 -10 -10 -42 8 -135 73 -2 1 13 31 32 67
93 174 105 336 37 462 -111 204 -404 191 -542 -24 l-33 -51 -34 61 c-103 182
-262 248 -421 176 -151 -69 -228 -241 -193 -431 13 -73 73 -196 143 -290 88
-121 480 -495 518 -495 11 0 63 50 122 114 80 90 107 114 123 110 11 -3 36 -9
55 -14 47 -13 202 -12 235 0 26 10 26 9 20 -19 -5 -26 -2 -32 22 -44 92 -47
349 -110 513 -127 168 -16 380 14 492 71 21 11 40 19 43 19 9 0 5 -160 -10
-465 -20 -405 -22 -371 21 -380 l36 -6 -6 -92 c-3 -51 -8 -144 -11 -207 -6
-107 -47 -579 -61 -697 l-6 -53 114 0 115 0 17 103 c44 264 62 367 101 567
l41 215 52 3 c42 2 53 0 61 -16 24 -45 159 -569 216 -840 l7 -32 114 0 c104 0
114 2 114 18 0 11 -13 131 -30 268 -16 137 -35 347 -42 466 -11 200 -11 221 6
273 12 40 22 55 33 53 10 -2 25 15 42 47 15 28 52 93 82 145 155 265 168 422
54 656 -107 220 -260 399 -400 469 -44 22 -84 45 -90 52 -5 6 -37 25 -70 41
l-60 30 50 22 c38 17 72 22 146 23 86 2 100 5 136 29 23 15 44 36 48 48 4 11
15 20 26 20 33 0 95 37 128 77 29 35 71 138 71 174 0 11 12 18 39 23 48 7 88
46 102 100 14 51 6 144 -15 187 -20 40 -20 39 2 39 117 2 50 288 -92 390 -26
19 -45 36 -43 39 36 69 33 99 -16 135 -23 17 -42 21 -102 20 -72 0 -74 0 -86
28 -20 48 -123 142 -200 181 -88 46 -145 50 -155 13 -3 -14 -3 -30 1 -35 8
-13 -7 -15 -21 -2 -16 15 -137 59 -209 76 -85 20 -221 27 -294 15z m-155 -587
c9 -16 25 -33 33 -40 24 -18 80 -15 130 7 24 11 45 19 46 18 1 -2 11 -20 24
-40 51 -85 211 -73 309 23 23 23 32 27 32 15 0 -8 7 -34 16 -56 22 -53 69 -82
140 -84 l54 -1 0 -55 c0 -30 5 -73 11 -95 13 -49 50 -125 60 -125 4 0 5 -30 2
-67 -5 -58 -3 -72 15 -93 l20 -25 27 27 c66 66 163 39 180 -49 8 -46 -26 -118
-68 -139 -29 -16 -91 -15 -143 1 -16 5 -26 -2 -49 -39 -79 -125 -292 -205
-515 -193 -343 19 -534 232 -517 577 8 154 77 371 139 438 27 28 32 28 54 -5z
m-1669 -569 c29 -14 67 -42 86 -63 37 -41 100 -144 112 -182 10 -32 25 -50 36
-43 5 3 21 31 36 62 38 78 124 164 187 185 174 59 324 -40 343 -228 9 -86 -27
-215 -89 -316 -24 -39 -32 -45 -53 -41 -14 2 -36 -3 -50 -12 -20 -13 -25 -25
-25 -55 0 -22 5 -41 12 -43 7 -3 -60 -78 -148 -169 -88 -90 -170 -177 -182
-193 l-22 -29 -46 38 c-25 21 -126 117 -223 214 -254 253 -341 392 -349 561
-5 113 20 183 92 256 85 85 188 106 283 58z m2295 -506 c9 -5 9 -14 -1 -35
-15 -32 -123 -182 -132 -182 -11 -1 -50 165 -54 223 0 5 36 17 80 26 78 15 80
15 88 -4 4 -11 13 -24 19 -28z m88 -18 c35 -19 35 -70 0 -154 -18 -42 -37 -76
-43 -76 -7 1 -30 16 -51 34 l-39 34 45 68 c24 38 47 77 51 87 7 20 12 21 37 7z
m137 -87 c74 -37 189 -153 265 -268 73 -110 152 -271 168 -344 24 -106 -6
-251 -80 -386 -62 -112 -61 -111 -96 -89 -16 10 -48 33 -71 51 l-42 34 18 42
c58 136 95 291 78 324 -30 54 -210 283 -222 283 -24 0 -18 -19 26 -87 51 -78
55 -96 69 -318 l12 -180 -46 -98 c-25 -54 -56 -111 -69 -126 -13 -16 -29 -42
-36 -59 -17 -40 -67 -60 -200 -77 -58 -8 -106 -13 -108 -11 -1 1 -7 54 -13
117 -6 74 -6 273 0 566 7 376 11 457 24 482 19 35 32 45 41 31 10 -16 105 -90
116 -90 14 0 99 179 99 207 0 13 3 23 6 23 3 0 31 -12 61 -27z m-523 -75 c3
-29 7 -66 8 -83 4 -45 32 -44 65 4 15 22 31 40 35 41 4 0 14 -16 23 -36 13
-31 13 -68 4 -277 -11 -245 -7 -823 6 -865 7 -22 6 -22 -36 -16 -64 9 -202 43
-210 52 -3 4 -3 70 2 147 14 253 29 608 29 706 0 81 -3 98 -17 103 -22 9 -33
-10 -33 -60 0 -41 -1 -42 -57 -67 -203 -90 -421 -100 -726 -30 -67 15 -69 16
-63 42 3 14 11 62 17 106 6 44 13 85 14 91 3 9 19 8 62 -3 32 -8 115 -17 184
-20 132 -6 212 3 322 38 68 22 245 109 302 150 22 15 45 28 52 29 7 0 14 -22
17 -52z m-1259 -13 c22 -13 55 -37 74 -53 l35 -29 -18 -66 c-20 -72 -20 -72
-122 -93 -28 -5 -183 11 -192 21 -3 3 15 26 40 53 24 26 53 60 62 75 23 34 56
35 92 2 32 -30 44 -32 37 -6 -7 27 -45 61 -78 70 -37 9 -56 38 -35 51 19 13
55 4 105 -25z m237 -90 l58 -19 -6 -40 c-8 -57 -36 -196 -40 -196 -6 0 -138
50 -142 54 -8 9 52 226 62 223 6 -3 37 -13 68 -22z m1768 -921 c25 -15 47 -29
49 -31 3 -2 -44 -88 -55 -102 -2 -2 -35 15 -73 37 l-69 42 30 61 30 61 21 -20
c12 -11 42 -32 67 -48z"/>
<path d="M4757 3124 c-14 -14 -7 -70 13 -102 25 -40 76 -64 115 -53 35 9 82
65 91 109 5 25 3 32 -9 32 -9 0 -19 -9 -22 -20 -4 -11 -18 -34 -32 -50 -47
-56 -112 -31 -116 46 -3 37 -22 55 -40 38z"/>
</g>
</svg>
